<svg version="1.1" id="Layer_1" xmlns="http://www.w3.org/2000/svg" xmlns:xlink="http://www.w3.org/1999/xlink" x="0px" y="0px"
	 width="100%" viewBox="0 0 758 362" enable-background="new 0 0 758 362" xml:space="preserve">
<path fill="#000000" opacity="1.000000" stroke="none" 
	d="
M567.000000,363.000000 
	C378.000000,363.000000 189.500000,363.000000 1.000000,363.000000 
	C1.000000,242.333328 1.000000,121.666664 1.000000,1.000000 
	C253.666672,1.000000 506.333344,1.000000 759.000000,1.000000 
	C759.000000,121.666664 759.000000,242.333328 759.000000,363.000000 
	C695.166687,363.000000 631.333313,363.000000 567.000000,363.000000 
M654.015259,223.028275 
	C654.015259,223.028275 654.028381,223.150253 654.520081,222.741699 
	C655.060059,221.830536 655.600037,220.919373 656.025574,220.038620 
	C656.025574,220.038620 656.056030,220.153030 656.575439,219.695511 
	C658.509888,216.061600 660.444275,212.427689 663.079895,208.599091 
	C665.578186,203.267975 668.548157,198.101288 670.476379,192.571396 
	C674.459534,181.148254 677.784180,169.497986 677.830200,157.234421 
	C677.875854,145.080902 678.226135,132.900009 677.495544,120.788246 
	C677.254028,116.783684 674.563660,112.609055 672.122498,109.121399 
	C667.105530,101.953644 659.366028,101.325356 651.507874,102.152580 
	C643.136780,103.033783 635.962708,112.707886 637.103149,121.060486 
	C637.548828,124.323669 637.872314,127.603531 638.056091,131.812347 
	C638.180725,139.267899 638.305298,146.723450 638.431091,154.915558 
	C638.460022,155.651352 638.488953,156.387131 637.890381,157.548477 
	C637.674866,158.739761 637.459412,159.931046 637.226135,161.936249 
	C633.850220,171.593506 631.294739,181.641556 626.921143,190.823578 
	C618.780396,207.914642 605.414429,220.437973 588.663452,229.044220 
	C571.038513,238.099503 552.529114,243.724319 532.379761,240.029037 
	C524.230896,238.534576 515.858643,237.361191 508.157135,234.506439 
	C490.747009,228.052994 476.464508,217.332016 465.307831,202.056610 
	C453.153290,185.414948 447.556885,166.757401 447.008057,146.735138 
	C446.767090,137.943726 449.311035,128.836960 451.872284,120.255974 
	C457.766388,100.508804 469.825012,84.581848 485.648773,71.782379 
	C503.398987,57.424667 524.347229,50.639271 546.969299,49.887753 
	C554.882324,49.624882 563.023315,51.319061 570.804749,53.184845 
	C581.722534,55.802620 592.467957,59.267204 601.462463,66.501137 
	C600.880432,67.554260 600.595703,68.647865 599.890320,69.242386 
	C597.275696,71.446106 595.967590,74.529457 597.046631,77.405312 
	C598.448364,81.140984 601.759521,82.677246 606.081299,83.101013 
	C614.195801,83.896683 622.206421,85.695557 630.293640,86.841408 
	C638.544434,88.010445 646.814331,89.173248 655.116394,89.806023 
	C660.451721,90.212677 663.576782,85.611626 662.511902,80.250328 
	C659.560730,65.392288 656.575378,50.538223 653.913635,35.627235 
	C653.159058,31.399914 651.835815,27.178015 647.644470,26.690830 
	C644.656860,26.343548 641.294861,28.961746 638.154541,30.377598 
	C637.445068,30.697422 636.785828,31.423656 636.403809,32.126141 
	C634.114258,36.337139 631.374084,35.062012 628.274780,33.094906 
	C623.853149,30.288500 619.360901,27.569477 614.750366,25.089071 
	C601.842285,18.144728 588.410828,12.351370 573.670105,11.081982 
	C560.032471,9.907584 546.191406,8.308678 532.663574,9.479680 
	C520.673767,10.517548 508.686951,14.262842 497.264679,18.382051 
	C487.230591,22.000641 477.167358,26.678480 468.601044,32.924007 
	C458.968658,39.946796 451.003479,49.255066 442.305908,57.561630 
	C430.540497,68.798088 422.784637,82.811752 416.542908,97.439888 
	C406.944641,119.934410 405.428528,143.696655 408.107697,167.863907 
	C409.512451,180.535690 413.420227,192.354965 419.123535,203.641266 
	C422.149841,209.630005 425.428375,215.491272 428.801086,221.799194 
	C427.357910,222.248260 426.157990,222.958862 424.972351,222.935760 
	C417.383179,222.787781 409.796906,222.290863 402.210236,222.302536 
	C398.474487,222.308273 395.531403,224.501938 396.272858,228.517792 
	C396.861115,231.704086 398.205109,235.281006 400.389679,237.554276 
	C412.417114,250.070145 424.682739,262.366852 437.192993,274.399445 
	C439.268890,276.396118 443.324860,278.080841 445.784546,277.410400 
	C447.974182,276.813507 449.647430,272.931244 450.793854,270.184021 
	C453.277405,264.232666 455.278046,258.079803 457.243988,252.650604 
	C468.048431,258.664459 478.047760,265.057831 488.742279,269.922943 
	C497.417786,273.869598 506.745911,277.170166 516.114380,278.607574 
	C528.099915,280.446533 540.448608,280.955353 552.580750,280.485870 
	C562.918213,280.085876 573.320312,278.118896 583.424927,275.715149 
	C597.680542,272.323975 610.443665,265.310211 622.129944,256.550781 
	C627.781738,252.314545 633.198547,247.669205 638.191162,242.678345 
	C642.503662,238.367386 646.065369,233.305405 650.598694,228.245468 
	C650.866089,227.850052 651.133484,227.454636 651.754700,226.908112 
	C651.962036,226.727097 652.064331,226.498978 652.550598,225.806442 
	C653.079468,224.876053 653.608398,223.945663 654.015259,223.028275 
M661.099060,260.821747 
	C661.099060,270.542267 661.099060,280.262787 661.099060,289.983276 
	C661.335205,289.983093 661.571289,289.982910 661.807434,289.982727 
	C661.807434,279.946381 661.807434,269.910065 661.836487,258.956512 
	C661.836487,250.858582 661.836487,242.760635 661.836487,234.662704 
	C661.621826,234.666611 661.407227,234.670517 661.192566,234.674423 
	C661.192566,243.073715 661.192566,251.472992 661.099060,260.821747 
M361.018738,107.500000 
	C361.018738,80.596893 361.018738,53.693783 361.018738,26.790674 
	C360.788971,26.791883 360.559174,26.793091 360.329407,26.794300 
	C360.329407,92.469711 360.329407,158.145126 360.329407,223.820541 
	C360.559479,223.820541 360.789581,223.820557 361.019653,223.820572 
	C361.019653,185.380386 361.019653,146.940186 361.018738,107.500000 
M50.023758,195.588608 
	C50.023758,220.301025 50.023758,245.013458 50.023758,269.725891 
	C50.249130,269.722992 50.474503,269.720123 50.699875,269.717255 
	C50.699875,242.218155 50.699875,214.719070 50.699875,187.220001 
	C50.473461,187.218124 50.247044,187.216263 50.020630,187.214401 
	C50.020630,189.687668 50.020630,192.160919 50.023758,195.588608 
M175.691711,167.008453 
	C173.520599,167.008453 171.349487,167.008453 169.178375,167.008453 
	C169.194168,167.257797 169.209976,167.507126 169.225769,167.756470 
	C194.120895,167.756470 219.016022,167.756470 243.911148,167.756470 
	C243.911896,167.507111 243.912643,167.257767 243.913391,167.008408 
	C221.486816,167.008408 199.060242,167.008408 175.691711,167.008453 
M335.585205,18.981606 
	C341.352295,18.981606 347.119385,18.981606 352.886475,18.981606 
	C352.875916,18.774546 352.865326,18.567488 352.854767,18.360428 
	C344.306061,18.360428 335.757385,18.360428 327.208710,18.360428 
	C327.211945,18.566952 327.215210,18.773476 327.218445,18.980000 
	C329.688812,18.980000 332.159149,18.980000 335.585205,18.981606 
M715.760620,101.025360 
	C713.812988,101.025360 711.865417,101.025360 709.917786,101.025360 
	C709.920471,101.260231 709.923157,101.495102 709.925842,101.729973 
	C717.956116,101.729973 725.986389,101.729973 734.016663,101.729973 
	C734.019836,101.496475 734.023071,101.262970 734.026245,101.029472 
	C728.245972,101.029472 722.465637,101.029472 715.760620,101.025360 
M41.275272,278.887726 
	C41.473625,278.720093 41.671978,278.552490 41.870338,278.384888 
	C41.733692,278.307251 41.597137,278.161835 41.460381,278.161652 
	C33.647190,278.150757 25.833984,278.151947 18.020777,278.151947 
	C18.022203,278.413177 18.023630,278.674408 18.025055,278.935638 
	C25.594465,278.935638 33.163876,278.935638 41.275272,278.887726 
M106.987022,120.498550 
	C106.987022,116.734398 106.987022,112.970238 106.987022,109.206085 
	C106.756241,109.222832 106.525459,109.239578 106.294678,109.256325 
	C106.294678,116.796822 106.294678,124.337318 106.294678,131.877808 
	C106.524437,131.877060 106.754189,131.876312 106.983948,131.875565 
	C106.983948,128.409531 106.983948,124.943489 106.987022,120.498550 
M723.458435,278.030640 
	C719.357483,278.030640 715.256470,278.030640 711.155518,278.030640 
	C711.170410,278.224457 711.185242,278.418304 711.200134,278.612122 
	C718.423706,278.612122 725.647217,278.612122 732.870789,278.612122 
	C732.865967,278.417664 732.861206,278.223236 732.856384,278.028778 
	C730.045532,278.028778 727.234680,278.028778 723.458435,278.030640 
M33.098396,101.012810 
	C28.100048,101.012810 23.101700,101.012810 18.103354,101.012810 
	C18.110840,101.229286 18.118328,101.445770 18.125816,101.662247 
	C24.695753,101.662247 31.265690,101.662247 37.835629,101.662247 
	C37.833443,101.446175 37.831261,101.230103 37.829079,101.014030 
	C36.531914,101.014030 35.234749,101.014030 33.098396,101.012810 
M162.456421,167.465225 
	C162.456421,167.465225 162.501038,167.451767 162.456421,167.465225 
z"/>
<path fill="#338F40" opacity="1.000000" stroke="none" 
	d="
M649.959045,228.575439 
	C646.065369,233.305405 642.503662,238.367386 638.191162,242.678345 
	C633.198547,247.669205 627.781738,252.314545 622.129944,256.550781 
	C610.443665,265.310211 597.680542,272.323975 583.424927,275.715149 
	C573.320312,278.118896 562.918213,280.085876 552.580750,280.485870 
	C540.448608,280.955353 528.099915,280.446533 516.114380,278.607574 
	C506.745911,277.170166 497.417786,273.869598 488.742279,269.922943 
	C478.047760,265.057831 468.048431,258.664459 457.243988,252.650604 
	C455.278046,258.079803 453.277405,264.232666 450.793854,270.184021 
	C449.647430,272.931244 447.974182,276.813507 445.784546,277.410400 
	C443.324860,278.080841 439.268890,276.396118 437.192993,274.399445 
	C424.682739,262.366852 412.417114,250.070145 400.389679,237.554276 
	C398.205109,235.281006 396.861115,231.704086 396.272858,228.517792 
	C395.531403,224.501938 398.474487,222.308273 402.210236,222.302536 
	C409.796906,222.290863 417.383179,222.787781 424.972351,222.935760 
	C426.157990,222.958862 427.357910,222.248260 428.801086,221.799194 
	C425.428375,215.491272 422.149841,209.630005 419.123535,203.641266 
	C413.420227,192.354965 409.512451,180.535690 408.107697,167.863907 
	C405.428528,143.696655 406.944641,119.934410 416.542908,97.439888 
	C422.784637,82.811752 430.540497,68.798088 442.305908,57.561630 
	C451.003479,49.255066 458.968658,39.946796 468.601044,32.924007 
	C477.167358,26.678480 487.230591,22.000641 497.264679,18.382051 
	C508.686951,14.262842 520.673767,10.517548 532.663574,9.479680 
	C546.191406,8.308678 560.032471,9.907584 573.670105,11.081982 
	C588.410828,12.351370 601.842285,18.144728 614.750366,25.089071 
	C619.360901,27.569477 623.853149,30.288500 628.274780,33.094906 
	C631.374084,35.062012 634.114258,36.337139 636.403809,32.126141 
	C636.785828,31.423656 637.445068,30.697422 638.154541,30.377598 
	C641.294861,28.961746 644.656860,26.343548 647.644470,26.690830 
	C651.835815,27.178015 653.159058,31.399914 653.913635,35.627235 
	C656.575378,50.538223 659.560730,65.392288 662.511902,80.250328 
	C663.576782,85.611626 660.451721,90.212677 655.116394,89.806023 
	C646.814331,89.173248 638.544434,88.010445 630.293640,86.841408 
	C622.206421,85.695557 614.195801,83.896683 606.081299,83.101013 
	C601.759521,82.677246 598.448364,81.140984 597.046631,77.405312 
	C595.967590,74.529457 597.275696,71.446106 599.890320,69.242386 
	C600.595703,68.647865 600.880432,67.554260 601.462463,66.501137 
	C592.467957,59.267204 581.722534,55.802620 570.804749,53.184845 
	C563.023315,51.319061 554.882324,49.624882 546.969299,49.887753 
	C524.347229,50.639271 503.398987,57.424667 485.648773,71.782379 
	C469.825012,84.581848 457.766388,100.508804 451.872284,120.255974 
	C449.311035,128.836960 446.767090,137.943726 447.008057,146.735138 
	C447.556885,166.757401 453.153290,185.414948 465.307831,202.056610 
	C476.464508,217.332016 490.747009,228.052994 508.157135,234.506439 
	C515.858643,237.361191 524.230896,238.534576 532.379761,240.029037 
	C552.529114,243.724319 571.038513,238.099503 588.663452,229.044220 
	C605.414429,220.437973 618.780396,207.914642 626.921143,190.823578 
	C631.294739,181.641556 633.850220,171.593506 637.437561,161.331329 
	C637.938599,159.525238 638.228210,158.324081 638.517883,157.122925 
	C638.488953,156.387131 638.460022,155.651352 638.649170,154.244995 
	C640.408081,145.960861 641.143494,138.369125 638.251465,130.875793 
	C637.872314,127.603531 637.548828,124.323669 637.103149,121.060486 
	C635.962708,112.707886 643.136780,103.033783 651.507874,102.152580 
	C659.366028,101.325356 667.105530,101.953644 672.122498,109.121399 
	C674.563660,112.609055 677.254028,116.783684 677.495544,120.788246 
	C678.226135,132.900009 677.875854,145.080902 677.830200,157.234421 
	C677.784180,169.497986 674.459534,181.148254 670.476379,192.571396 
	C668.548157,198.101288 665.578186,203.267975 662.562622,208.785095 
	C660.048828,212.698410 658.052429,216.425720 656.056030,220.153030 
	C656.056030,220.153030 656.025574,220.038620 655.832642,220.228821 
	C655.102600,221.329422 654.565491,222.239853 654.028381,223.150269 
	C654.028381,223.150253 654.015259,223.028275 653.816650,223.225769 
	C653.099243,224.356766 652.580383,225.290253 652.061584,226.223740 
	C652.064331,226.498978 651.962036,226.727097 651.362061,227.258209 
	C650.632568,227.930695 650.295837,228.253067 649.959045,228.575439 
M638.459717,124.714279 
	C638.459717,124.714279 638.548157,124.388931 638.548157,124.388931 
	C638.548157,124.388931 638.353333,124.640251 638.459717,124.714279 
M637.524902,165.472275 
	C637.524902,165.472275 637.471619,165.494171 637.524902,165.472275 
z"/>
<path fill="#222D22" opacity="1.000000" stroke="none" 
	d="
M361.019196,108.000000 
	C361.019653,146.940186 361.019653,185.380386 361.019653,223.820572 
	C360.789581,223.820557 360.559479,223.820541 360.329407,223.820541 
	C360.329407,158.145126 360.329407,92.469711 360.329407,26.794300 
	C360.559174,26.793091 360.788971,26.791883 361.018738,26.790674 
	C361.018738,53.693783 361.018738,80.596893 361.019196,108.000000 
z"/>
<path fill="#121312" opacity="1.000000" stroke="none" 
	d="
M50.022194,195.111389 
	C50.020630,192.160919 50.020630,189.687668 50.020630,187.214401 
	C50.247044,187.216263 50.473461,187.218124 50.699875,187.220001 
	C50.699875,214.719070 50.699875,242.218155 50.699875,269.717255 
	C50.474503,269.720123 50.249130,269.722992 50.023758,269.725891 
	C50.023758,245.013458 50.023758,220.301025 50.022194,195.111389 
z"/>
<path fill="#0B0C0B" opacity="1.000000" stroke="none" 
	d="
M176.162689,167.008423 
	C199.060242,167.008408 221.486816,167.008408 243.913391,167.008408 
	C243.912643,167.257767 243.911896,167.507111 243.911148,167.756470 
	C219.016022,167.756470 194.120895,167.756470 169.225769,167.756470 
	C169.209976,167.507126 169.194168,167.257797 169.178375,167.008453 
	C171.349487,167.008453 173.520599,167.008453 176.162689,167.008423 
z"/>
<path fill="#215E22" opacity="1.000000" stroke="none" 
	d="
M638.153809,131.344070 
	C641.143494,138.369125 640.408081,145.960861 638.648560,153.876724 
	C638.305298,146.723450 638.180725,139.267899 638.153809,131.344070 
z"/>
<path fill="#192018" opacity="1.000000" stroke="none" 
	d="
M661.807434,259.873718 
	C661.807434,269.910065 661.807434,279.946381 661.807434,289.982727 
	C661.571289,289.982910 661.335205,289.983093 661.099060,289.983276 
	C661.099060,280.262787 661.099060,270.542267 661.299316,260.346893 
	C661.499634,259.872040 661.807434,259.873718 661.807434,259.873718 
z"/>
<path fill="#171915" opacity="1.000000" stroke="none" 
	d="
M335.107361,18.980803 
	C332.159149,18.980000 329.688812,18.980000 327.218445,18.980000 
	C327.215210,18.773476 327.211945,18.566952 327.208710,18.360428 
	C335.757385,18.360428 344.306061,18.360428 352.854767,18.360428 
	C352.865326,18.567488 352.875916,18.774546 352.886475,18.981606 
	C347.119385,18.981606 341.352295,18.981606 335.107361,18.980803 
z"/>
<path fill="#151D15" opacity="1.000000" stroke="none" 
	d="
M716.222961,101.027420 
	C722.465637,101.029472 728.245972,101.029472 734.026245,101.029472 
	C734.023071,101.262970 734.019836,101.496475 734.016663,101.729973 
	C725.986389,101.729973 717.956116,101.729973 709.925842,101.729973 
	C709.923157,101.495102 709.920471,101.260231 709.917786,101.025360 
	C711.865417,101.025360 713.812988,101.025360 716.222961,101.027420 
z"/>
<path fill="#161A19" opacity="1.000000" stroke="none" 
	d="
M41.004280,278.911682 
	C33.163876,278.935638 25.594465,278.935638 18.025055,278.935638 
	C18.023630,278.674408 18.022203,278.413177 18.020777,278.151947 
	C25.833984,278.151947 33.647190,278.150757 41.460381,278.161652 
	C41.597137,278.161835 41.733692,278.307251 41.870335,278.384888 
	C41.671978,278.552490 41.473625,278.720093 41.004280,278.911682 
z"/>
<path fill="#121513" opacity="1.000000" stroke="none" 
	d="
M106.985489,120.987999 
	C106.983948,124.943489 106.983948,128.409531 106.983948,131.875565 
	C106.754189,131.876312 106.524437,131.877060 106.294678,131.877808 
	C106.294678,124.337318 106.294678,116.796822 106.294678,109.256325 
	C106.525459,109.239578 106.756241,109.222832 106.987022,109.206085 
	C106.987022,112.970238 106.987022,116.734398 106.985489,120.987999 
z"/>
<path fill="#131C18" opacity="1.000000" stroke="none" 
	d="
M723.941162,278.029724 
	C727.234680,278.028778 730.045532,278.028778 732.856384,278.028778 
	C732.861206,278.223236 732.865967,278.417664 732.870789,278.612122 
	C725.647217,278.612122 718.423706,278.612122 711.200134,278.612122 
	C711.185242,278.418304 711.170410,278.224457 711.155518,278.030640 
	C715.256470,278.030640 719.357483,278.030640 723.941162,278.029724 
z"/>
<path fill="#263C28" opacity="1.000000" stroke="none" 
	d="
M661.821960,259.415100 
	C661.807434,259.873718 661.499634,259.872040 661.346069,259.872162 
	C661.192566,251.472992 661.192566,243.073715 661.192566,234.674423 
	C661.407227,234.670517 661.621826,234.666611 661.836487,234.662704 
	C661.836487,242.760635 661.836487,250.858582 661.821960,259.415100 
z"/>
<path fill="#121312" opacity="1.000000" stroke="none" 
	d="
M33.517990,101.013420 
	C35.234749,101.014030 36.531914,101.014030 37.829079,101.014030 
	C37.831261,101.230103 37.833443,101.446175 37.835629,101.662247 
	C31.265690,101.662247 24.695753,101.662247 18.125816,101.662247 
	C18.118328,101.445770 18.110840,101.229286 18.103354,101.012810 
	C23.101700,101.012810 28.100048,101.012810 33.517990,101.013420 
z"/>
<path fill="#3BA84C" opacity="1.000000" stroke="none" 
	d="
M656.315735,219.924271 
	C658.052429,216.425720 660.048828,212.698410 662.211975,208.882446 
	C660.444275,212.427689 658.509888,216.061600 656.315735,219.924271 
z"/>
<path fill="#215E22" opacity="1.000000" stroke="none" 
	d="
M638.204102,157.335693 
	C638.228210,158.324081 637.938599,159.525238 637.446411,160.924377 
	C637.459412,159.931046 637.674866,158.739761 638.204102,157.335693 
z"/>
<path fill="#3BA84C" opacity="1.000000" stroke="none" 
	d="
M654.274231,222.945984 
	C654.565491,222.239853 655.102600,221.329422 655.889832,220.213623 
	C655.600037,220.919373 655.060059,221.830536 654.274231,222.945984 
z"/>
<path fill="#3BA84C" opacity="1.000000" stroke="none" 
	d="
M652.306091,226.015091 
	C652.580383,225.290253 653.099243,224.356766 653.877686,223.219269 
	C653.608398,223.945663 653.079468,224.876053 652.306091,226.015091 
z"/>
<path fill="#0B0C0B" opacity="1.000000" stroke="none" 
	d="
M162.478729,167.458496 
	C162.501038,167.451767 162.456421,167.465225 162.478729,167.458496 
z"/>
<path fill="#3BA84C" opacity="1.000000" stroke="none" 
	d="
M650.278870,228.410461 
	C650.295837,228.253067 650.632568,227.930695 651.185059,227.333771 
	C651.133484,227.454636 650.866089,227.850052 650.278870,228.410461 
z"/>
<path fill="#215E22" opacity="1.000000" stroke="none" 
	d="
M638.406494,124.677261 
	C638.353333,124.640251 638.548157,124.388931 638.548157,124.388931 
	C638.548157,124.388931 638.459717,124.714279 638.406494,124.677261 
z"/>
<path fill="#215E22" opacity="1.000000" stroke="none" 
	d="
M637.498291,165.483215 
	C637.471619,165.494171 637.524902,165.472275 637.498291,165.483215 
z"/>
</svg>